<svg width="43" height="38" viewBox="0 0 43 38" fill="none" xmlns="http://www.w3.org/2000/svg">
<g clip-path="url(#clip0_10477_4499)">
<path d="M23.0992 3.98726C24.0034 3.08307 24.0034 1.61707 23.0992 0.712877C22.195 -0.19132 20.729 -0.19132 19.8248 0.712877L10.5255 10.0122C9.62128 10.9164 9.62128 12.3824 10.5255 13.2866C11.4297 14.1908 12.8957 14.1908 13.7999 13.2866L23.0992 3.98726Z" fill="#3F83E7"/>
<path d="M40.8217 13.2862C40.6067 13.5013 40.3514 13.6719 40.0705 13.7883C39.7895 13.9047 39.4884 13.9646 39.1843 13.9646C38.8802 13.9646 38.579 13.9047 38.2981 13.7883C38.0172 13.6719 37.7619 13.5013 37.5469 13.2862L30.3079 6.04728C30.1859 5.92525 30.0203 5.8567 29.8477 5.8567C29.6751 5.8567 29.5096 5.92525 29.3875 6.04728L22.1486 13.2862C21.7127 13.7119 21.1265 13.9485 20.5172 13.9449C19.908 13.9413 19.3247 13.6976 18.8938 13.2668C18.463 12.836 18.2194 12.2527 18.2157 11.6434C18.2121 11.0341 18.4488 10.448 18.8744 10.0121L28.1736 0.712947C28.6227 0.278659 29.223 0.0358887 29.8477 0.0358887C30.4725 0.0358887 31.0728 0.278659 31.5219 0.712947L40.8217 10.0121C41.2558 10.4463 41.4997 11.0351 41.4997 11.6491C41.4997 12.2631 41.2558 12.852 40.8217 13.2862Z" fill="#304E6F"/>
<path d="M14.7517 3.98726C15.6559 3.08307 15.6559 1.61707 14.7517 0.712877C13.8475 -0.19132 12.3815 -0.19132 11.4773 0.712877L2.17794 10.0122C1.27374 10.9164 1.27375 12.3824 2.17794 13.2866C3.08214 14.1908 4.54813 14.1908 5.45233 13.2866L14.7517 3.98726Z" fill="#67A6EB"/>
<path d="M32.0938 11.0263L30.3084 9.24091C30.0542 8.98671 29.6421 8.98671 29.3879 9.24091L27.6025 11.0263C27.3483 11.2805 27.3483 11.6927 27.6025 11.9469L29.3879 13.7323C29.6421 13.9865 30.0542 13.9865 30.3084 13.7323L32.0938 11.9469C32.348 11.6927 32.348 11.2805 32.0938 11.0263Z" fill="#304E6F"/>
</g>
<path d="M9.296 21.6372V23.7012H3.52V26.3412H8.56V28.4052H3.52V30.9172H9.296V32.9652H1.2V21.6372H9.296ZM12.835 27.2692C12.835 27.7492 12.8937 28.2132 13.011 28.6612C13.139 29.1092 13.3257 29.5039 13.571 29.8452C13.827 30.1865 14.147 30.4639 14.531 30.6772C14.9257 30.8799 15.395 30.9812 15.939 30.9812C16.6217 30.9812 17.1817 30.8319 17.619 30.5332C18.067 30.2239 18.3443 29.7972 18.451 29.2532H20.691C20.6377 29.8825 20.4723 30.4372 20.195 30.9172C19.9177 31.3865 19.5603 31.7812 19.123 32.1012C18.6857 32.4212 18.1897 32.6612 17.635 32.8212C17.0803 32.9812 16.5043 33.0612 15.907 33.0612C15.0217 33.0612 14.2377 32.9172 13.555 32.6292C12.883 32.3412 12.3123 31.9412 11.843 31.4292C11.3843 30.9172 11.0377 30.3092 10.803 29.6052C10.5683 28.9012 10.451 28.1279 10.451 27.2852C10.451 26.4639 10.5683 25.7012 10.803 24.9972C11.0483 24.2825 11.4057 23.6692 11.875 23.1572C12.3443 22.6345 12.915 22.2292 13.587 21.9412C14.2697 21.6425 15.0537 21.4932 15.939 21.4932C16.5577 21.4932 17.139 21.5679 17.683 21.7172C18.227 21.8665 18.7123 22.0959 19.139 22.4052C19.5657 22.7145 19.9123 23.1145 20.179 23.6052C20.4563 24.0852 20.627 24.6612 20.691 25.3332H18.451C18.3337 24.7892 18.0563 24.3572 17.619 24.0372C17.1817 23.7172 16.6217 23.5572 15.939 23.5572C15.395 23.5572 14.9257 23.6585 14.531 23.8612C14.147 24.0532 13.827 24.3199 13.571 24.6612C13.3257 25.0025 13.139 25.4025 13.011 25.8612C12.8937 26.3092 12.835 26.7785 12.835 27.2692ZM26.8839 21.6372C27.1825 21.6372 27.4812 21.6479 27.7799 21.6692C28.0785 21.6799 28.3719 21.7172 28.6599 21.7812C28.9479 21.8452 29.2252 21.9412 29.4919 22.0692C29.7692 22.1865 30.0252 22.3519 30.2599 22.5652C30.6332 22.9065 30.8999 23.3172 31.0599 23.7972C31.2199 24.2665 31.2945 24.7465 31.2839 25.2372C31.2732 25.8985 31.1559 26.4585 30.9319 26.9172C30.7185 27.3759 30.4252 27.7652 30.0519 28.0852C29.7105 28.3625 29.3159 28.5599 28.8679 28.6772L31.3799 32.9652H28.7879L26.4999 28.9012H24.6919V32.9652H22.3719V21.6372H26.8839ZM26.8999 26.9492C27.1879 26.9492 27.4599 26.9225 27.7159 26.8692C27.9719 26.8159 28.1905 26.7305 28.3719 26.6132C28.5639 26.4852 28.7132 26.3199 28.8199 26.1172C28.9372 25.9039 29.0012 25.6372 29.0119 25.3172C29.0225 24.9759 28.9745 24.6985 28.8679 24.4852C28.7612 24.2719 28.6119 24.1065 28.4199 23.9892C28.2385 23.8719 28.0199 23.7972 27.7639 23.7652C27.5185 23.7225 27.2465 23.7012 26.9479 23.7012H24.6919V26.9492H26.8999ZM32.6713 23.7012V21.6372H41.5513V23.4612L35.4553 30.9172H41.4392V32.9652H32.5433V31.1252L38.6393 23.7012H32.6713Z" fill="black"/>
<defs>
<clipPath id="clip0_10477_4499">
<rect width="40" height="13.9304" fill="black" transform="translate(1.5 0.03479)"/>
</clipPath>
</defs>
</svg>
